<?xml version="1.0" encoding="UTF-8"?>
<svg width="67px" height="20px" viewBox="0 0 67 20" version="1.1" xmlns="http://www.w3.org/2000/svg" xmlns:xlink="http://www.w3.org/1999/xlink">
    <!-- Generator: Sketch 41.1 (35376) - http://www.bohemiancoding.com/sketch -->
    <title>Page 1 Copy</title>
    <desc>Created with Sketch.</desc>
    <defs>
        <polygon id="path-1" points="0.0127502387 13.1998557 11.0163471 13.1998557 11.0163471 0.0454018257 0.0127502387 0.0454018257 0.0127502387 13.1998557"></polygon>
        <polygon id="path-3" points="0.0560016804 13.1998557 12.5264221 13.1998557 12.5264221 0.0421067191 0.0560016804 0.0421067191 0.0560016804 13.1998557"></polygon>
        <polygon id="path-5" points="0.0465617271 13.1998557 12.1052549 13.1998557 12.1052549 0.0421067191 0.0465617271 0.0421067191 0.0465617271 13.1998557"></polygon>
        <polygon id="path-7" points="5.4887529 0.100513722 0.0886155056 0.100513722 0.0886155056 18.5152001 5.4887529 18.5152001 5.4887529 0.100513722"></polygon>
        <polygon id="path-9" points="0 0.0730207099 0 12.6426816 12.5713553 12.6426816 12.5713553 0.0730207099 0 0.0730207099"></polygon>
    </defs>
    <g id="Welcome" stroke="none" stroke-width="1" fill="none" fill-rule="evenodd">
        <g id="Accueil" transform="translate(-61.000000, -11.000000)">
            <g id="Page-1-Copy" transform="translate(61.238281, 11.320296)">
                <g id="Group-3" transform="translate(16.086727, 5.598356)">
                    <mask id="mask-2" fill="white">
                        <use xlink:href="#path-1"></use>
                    </mask>
                    <g id="Clip-2"></g>
                    <path d="M11.0163471,9.37643261 C10.6605335,10.7464361 9.41155504,13.200824 6.01559235,13.200824 C2.69708568,13.200824 0.0127502387,10.2115054 0.0127502387,6.59527713 C0.0127502387,3.36148799 2.4526151,0.0454018257 6.89181366,0.0454018257 C9.22033548,0.0454018257 10.2078998,1.05959168 10.5637134,1.46865633 C10.8904811,1.88014147 11.0841211,2.5385177 10.83723,3.05892539 C10.5370879,3.82864466 9.63182062,4.26675531 8.83789634,3.9641927 C8.04155156,3.6616301 7.68573794,2.75878328 7.98588004,1.99148451 C8.12384859,1.57999937 8.4264112,1.27743676 8.78222482,1.14188871 C9.02911591,1.05959168 8.34411417,0.45688697 6.89181366,0.45688697 C5.84857779,0.45688697 3.0262738,1.30648277 3.0262738,6.21041749 C3.0262738,9.52650366 4.83438793,10.9255532 6.75384511,11.2256953 C8.45303671,11.4725863 10.3700734,10.431771 10.9485731,9.44420663 L11.0163471,9.37643261 Z" id="Fill-1" fill="#FEFEFE" mask="url(#mask-2)"></path>
                </g>
                <g id="Group-6" transform="translate(27.467513, 5.598356)">
                    <mask id="mask-4" fill="white">
                        <use xlink:href="#path-3"></use>
                    </mask>
                    <g id="Clip-5"></g>
                    <path d="M3.04289973,9.7736368 C3.04289973,10.1584964 3.28979082,11.746345 5.01560792,11.746345 C6.19439184,11.746345 6.85276807,10.8967492 7.09965916,10.238373 L7.09965916,5.88389193 C4.16601213,6.53984766 3.04289973,8.23903926 3.04289973,9.7736368 L3.04289973,9.7736368 Z M12.5264221,11.3082343 C12.332782,12.1578301 11.2387156,13.201066 9.64844655,13.201066 C9.64844655,13.201066 7.37317575,13.2276915 7.12628467,10.9257952 C6.74142503,12.1868761 5.12453046,13.201066 3.20749379,13.201066 C3.20749379,13.201066 0.0560016804,13.201066 0.0560016804,10.4053875 C0.0560016804,7.52741201 2.82989566,6.3825151 7.09965916,5.88389193 L7.09965916,4.23795135 C7.09965916,1.41564736 5.61831264,-0.0923246727 3.56330741,0.895239674 C2.60478908,1.38902185 2.46924103,1.88038352 2.63141459,1.90700903 C3.01385372,1.96268055 3.31641633,2.12727461 3.56330741,2.45646272 C4.02804358,3.08821345 3.86587002,3.96443475 3.2341193,4.42917092 C2.60478908,4.86970207 1.69952176,4.73173352 1.2614111,4.0999828 C0.932222988,3.63524664 0.905597479,3.03254193 1.15248857,2.59443127 C1.39695915,2.15632062 1.8084443,1.38902185 3.28979082,0.592677068 C4.49762074,-0.0366531532 5.89424973,0.0456438758 5.89424973,0.0456438758 C9.18128989,0.0456438758 10.0575112,2.29186867 10.0575112,5.5256578 L10.0575112,9.91160534 C10.0575112,9.91160534 10.0575112,11.7197195 11.3476381,11.7197195 C11.3476381,11.7197195 11.9503429,11.7197195 12.1149369,11.1436403 L12.5264221,11.3082343 Z" id="Fill-4" fill="#FEFEFE" mask="url(#mask-4)"></path>
                </g>
                <g id="Group-9" transform="translate(54.093023, 5.598356)">
                    <mask id="mask-6" fill="white">
                        <use xlink:href="#path-5"></use>
                    </mask>
                    <g id="Clip-8"></g>
                    <path d="M3.03345978,9.7736368 C3.03345978,10.1584964 3.28035086,11.746345 5.00616797,11.746345 C6.18495188,11.746345 6.84332812,10.8967492 7.0902192,10.238373 L7.0902192,5.88389193 C4.15657217,6.53984766 3.03345978,8.23903926 3.03345978,9.7736368 M12.105497,11.1436403 C11.9118569,11.9932361 11.2292757,13.201066 9.6390066,13.201066 C9.6390066,13.201066 7.3637358,13.2276915 7.11684471,10.9257952 C6.73198508,12.1868761 5.11509051,13.201066 3.19805383,13.201066 C3.19805383,13.201066 0.0465617271,13.201066 0.0465617271,10.4053875 C0.0465617271,7.52741201 2.8204557,6.3825151 7.0902192,5.88389193 L7.0902192,4.23795135 C7.0902192,1.41564736 5.60887268,-0.0923246727 3.55386746,0.895239674 C2.59534912,1.38902185 2.45980108,1.88038352 2.62197463,1.90700903 C3.00441377,1.96268055 3.30697637,2.12727461 3.55386746,2.45646272 C4.01860362,3.08821345 3.85643007,3.96443475 3.22467934,4.42917092 C2.59534912,4.86970207 1.6900818,4.73173352 1.25197115,4.0999828 C0.922783035,3.63524664 0.896157526,3.03254193 1.14304861,2.59443127 C1.3875192,2.15632062 1.79900434,1.38902185 3.28035086,0.592677068 C4.48818079,-0.0366531532 5.88480978,0.0456438758 5.88480978,0.0456438758 C9.17184993,0.0456438758 10.0480712,2.29186867 10.0480712,5.5256578 L10.0480712,9.91160534 C10.0480712,9.91160534 10.0480712,11.7197195 11.3381982,11.7197195 C11.3381982,11.7197195 11.9409029,11.7197195 12.105497,11.1436403" id="Fill-7" fill="#FEFEFE" mask="url(#mask-6)"></path>
                </g>
                <path d="M44.4483833,18.7982118 C41.1322971,18.7982118 39.5686536,17.6194279 39.5686536,17.6194279 L39.5686536,14.0298252 C39.8687957,15.4821257 41.0500001,18.3867267 44.4483833,18.3867267 C46.8592021,18.3867267 46.8592021,15.7023913 44.7775714,14.3299673 L42.0085184,12.6598217 C39.3508085,10.9606301 38.6924323,9.04117291 40.0067642,7.12413624 C40.0067642,7.12413624 40.9410775,5.64278972 43.70771,5.64278972 C46.8592021,5.64278972 48.2025801,6.49238551 48.2025801,6.49238551 L48.2025801,9.69954914 C47.926643,8.41184269 46.6946081,6.05427486 43.70771,6.05427486 C41.5147362,6.05427486 41.0209541,8.38279668 43.4051474,9.89076871 L46.1742004,11.6190063 C48.6382702,13.1511834 49.4370355,15.4555002 48.0936576,17.3725368 C48.0936576,17.3725368 47.1060932,18.7982118 44.4483833,18.7982118" id="Fill-10" fill="#FEFEFE"></path>
                <g id="Group-14" transform="translate(48.650590, 0.035637)">
                    <mask id="mask-8" fill="white">
                        <use xlink:href="#path-7"></use>
                    </mask>
                    <g id="Clip-13"></g>
                    <path d="M1.02050833,1.7435497 C1.02050833,0.838282381 1.73213558,0.100029621 2.6374029,0.100029621 C3.54024972,0.100029621 4.30754849,0.838282381 4.30754849,1.7435497 C4.30754849,2.64881702 3.54024972,3.36044427 2.6374029,3.36044427 C1.73213558,3.36044427 1.02050833,2.64881702 1.02050833,1.7435497 M5.4887529,18.5152001 L0.388757611,18.5152001 C1.43199348,18.186012 1.4852445,16.9806026 1.4852445,15.5839736 L1.4852445,8.73153566 C1.4852445,7.79964283 1.2117279,7.00571855 0.0886155056,6.53856188 L4.36322001,5.60908956 L4.36322001,15.5839736 C4.36322001,17.0895251 4.49876806,18.2416835 5.4887529,18.5152001" id="Fill-12" fill="#FEFEFE" mask="url(#mask-8)"></path>
                </g>
                <g id="Group-17" transform="translate(0.000000, 5.838929)">
                    <mask id="mask-10" fill="white">
                        <use xlink:href="#path-9"></use>
                    </mask>
                    <g id="Clip-16"></g>
                    <path d="M6.28531456,0.436095838 C3.02005891,0.436095838 0.364769478,3.09380577 0.364769478,6.35906142 C0.364769478,9.62431707 3.02005891,12.2796065 6.28531456,12.2796065 C9.55057021,12.2796065 12.2082801,9.62431707 12.2082801,6.35906142 C12.2082801,3.09380577 9.55057021,0.436095838 6.28531456,0.436095838 M6.28531456,12.6426816 C2.81915734,12.6426816 -0.000726150256,9.82279814 -0.000726150256,6.35906142 C-0.000726150256,2.8929042 2.81915734,0.0730207099 6.28531456,0.0730207099 C9.75147178,0.0730207099 12.5713553,2.8929042 12.5713553,6.35906142 C12.5713553,9.82279814 9.75147178,12.6426816 6.28531456,12.6426816" id="Fill-15" fill="#FEFEFE" mask="url(#mask-10)"></path>
                </g>
                <path d="M8.32749113,13.2574433 C8.32749113,14.3853967 7.41254181,15.2979256 6.28458841,15.2979256 C5.15663501,15.2979256 4.24410619,14.3853967 4.24410619,13.2574433 C4.24410619,12.1294899 6.28458841,9.25393494 6.28458841,9.25393494 C6.28458841,9.25393494 8.32749113,12.1294899 8.32749113,13.2574433" id="Fill-18" fill="#FEFEFE"></path>
            </g>
        </g>
    </g>
</svg>