<?xml version="1.0" encoding="UTF-8"?>
<svg width="12px" height="11px" viewBox="0 0 12 11" version="1.1" xmlns="http://www.w3.org/2000/svg" xmlns:xlink="http://www.w3.org/1999/xlink">
    <!-- Generator: Sketch 41.1 (35376) - http://www.bohemiancoding.com/sketch -->
    <title>Shape</title>
    <desc>Created with Sketch.</desc>
    <defs></defs>
    <g id="Welcome" stroke="none" stroke-width="1" fill="none" fill-rule="evenodd">
        <g id="Accueil" transform="translate(-538.000000, -2595.000000)" fill="#4A4A4A">
            <g id="fb-icon" transform="translate(538.890414, 2595.175684)">
                <g id="Layer_1">
                    <path d="M9.0475177,0 L1.40910149,0 C0.630919969,0 5.11591297e-05,0.630843231 5.11591297e-05,1.40905033 L5.11591297e-05,9.0475177 C5.11591297e-05,9.8257248 0.63089439,10.456568 1.40910149,10.456568 L5.17633192,10.456568 L5.18275239,6.71995635 L4.21198232,6.71995635 C4.08582391,6.71995635 3.98342891,6.61794504 3.9829429,6.49178663 L3.97828742,5.28732165 C3.97780141,5.16047259 4.08050336,5.05738694 4.20735242,5.05738694 L5.1763575,5.05738694 L5.1763575,3.8935679 C5.1763575,2.54296687 6.00122173,1.80755438 7.20604482,1.80755438 L8.194695,1.80755438 C8.32118595,1.80755438 8.42376001,1.91010285 8.42376001,2.03661938 L8.42376001,3.05223043 C8.42376001,3.1786958 8.32126269,3.28121869 8.1948229,3.28129543 L7.5881012,3.28157681 C6.93288065,3.28157681 6.806006,3.59293127 6.806006,4.04985904 L6.806006,5.05741252 L8.24575182,5.05741252 C8.38293502,5.05741252 8.48937159,5.17720163 8.47320531,5.31343839 L8.33044576,6.51790336 C8.31678627,6.63316488 8.21904675,6.72000751 8.10299226,6.72000751 L6.81242647,6.72000751 L6.806006,10.4566192 L9.04756886,10.4566192 C9.82575038,10.4566192 10.4565936,9.82577596 10.4565936,9.04759444 L10.4565936,1.40905033 C10.456568,0.630843231 9.8257248,0 9.0475177,0 Z" id="Shape"></path>
                </g>
            </g>
        </g>
    </g>
</svg>