<?xml version="1.0" encoding="UTF-8"?>
<svg width="28px" height="29px" viewBox="0 0 28 29" version="1.1" xmlns="http://www.w3.org/2000/svg" xmlns:xlink="http://www.w3.org/1999/xlink">
    <!-- Generator: Sketch 43.1 (39012) - http://www.bohemiancoding.com/sketch -->
    <title>Group 4 Copy</title>
    <desc>Created with Sketch.</desc>
    <defs></defs>
    <g id="Welcome" stroke="none" stroke-width="1" fill="none" fill-rule="evenodd">
        <g id="Chauffage-Mobile" transform="translate(-238.000000, -1346.000000)">
            <g id="Group-4-Copy" transform="translate(238.458083, 1346.073866)">
                <circle id="Oval" stroke="#4A4A4A" stroke-width="0.5" fill="#FFFFFF" cx="13.6435547" cy="14.078125" r="13.6435547"></circle>
                <g id="noun_601028_cc-copy" transform="translate(13.745599, 13.947907) rotate(-90.000000) translate(-13.745599, -13.947907) translate(10.245599, 8.447907)" fill-rule="nonzero" fill="#4A4A4A">
                    <g id="Group" transform="translate(0.366732, 0.226042)">
                        <path d="M2.91077009,9.43545851 C2.84063106,9.43545851 2.77049202,9.41792375 2.71788774,9.36531947 L0.227951875,6.87538361 C0.122743317,6.77017505 0.122743317,6.61236221 0.227951875,6.50715365 C0.333160433,6.4019451 0.490973269,6.4019451 0.596181827,6.50715365 L2.91077009,8.82174192 L5.2078236,6.48961889 C5.31303216,6.38441034 5.470845,6.38441034 5.57605355,6.48961889 C5.68126211,6.59482745 5.68126211,6.75264029 5.57605355,6.85784885 L3.08611769,9.36531947 C3.03351341,9.41792375 2.96337437,9.43545851 2.91077009,9.43545851 Z" id="Shape"></path>
                        <path d="M2.91077009,8.79985581 C2.77049202,8.79985581 2.6477487,8.72466025 2.6477487,8.63872247 L2.6477487,0.546846236 C2.6477487,0.460908456 2.77049202,0.385712899 2.91077009,0.385712899 C3.05104817,0.385712899 3.17379149,0.460908456 3.17379149,0.546846236 L3.17379149,8.63872247 C3.17379149,8.72466025 3.05104817,8.79985581 2.91077009,8.79985581 Z" id="Shape"></path>
                    </g>
                </g>
            </g>
        </g>
    </g>
</svg>