<?xml version="1.0" encoding="UTF-8"?>
<svg width="12px" height="11px" viewBox="0 0 12 11" version="1.1" xmlns="http://www.w3.org/2000/svg" xmlns:xlink="http://www.w3.org/1999/xlink">
    <!-- Generator: Sketch 41.1 (35376) - http://www.bohemiancoding.com/sketch -->
    <title>mail</title>
    <desc>Created with Sketch.</desc>
    <defs></defs>
    <g id="Welcome" stroke="none" stroke-width="1" fill="none" fill-rule="evenodd">
        <g id="Accueil" transform="translate(-313.000000, -357.000000)" fill="#FFFFFF">
            <g id="mail" transform="translate(313.517563, 357.024464)">
                <g id="Group">
                    <path d="M8.0109229,6.28372423 C8.05105434,6.10140267 8.07221165,5.91203906 8.07221165,5.71781658 C8.07221165,4.2678584 6.89305255,3.0886993 5.44309437,3.0886993 C3.99313619,3.0886993 2.81397709,4.2678584 2.81397709,5.71781658 C2.81397709,7.16777476 3.99313619,8.34693386 5.44309437,8.34693386 C6.10787096,8.34693386 6.71572456,8.09907018 7.17911272,7.69088529 C7.45934611,8.01113594 7.83403517,8.23061566 8.25756441,8.31867085 C9.3197278,8.54214582 10.3680883,7.85528893 10.5941924,6.77735085 C10.6651786,6.43162192 10.7013289,6.07471925 10.7013289,5.71781658 C10.7013289,2.8185575 8.34235345,0.459582024 5.44309437,0.459582024 C2.54383529,0.459582024 0.184859809,2.8185575 0.184859809,5.71781658 C0.184859809,8.61707566 2.54383529,10.9760511 5.44309437,10.9760511 C6.06290877,10.9760511 6.67154942,10.8689146 7.24995522,10.6572707 C7.59174046,10.5330449 7.76657676,10.1557666 7.64235097,9.81463858 C7.5174679,9.47219606 7.14084685,9.29867432 6.79971888,9.42224283 C6.36525725,9.58130442 5.90844813,9.6614925 5.44309437,9.6614925 C3.2681571,9.6614925 1.49941845,7.89275385 1.49941845,5.71781658 C1.49941845,3.54287931 3.2681571,1.77414066 5.44309437,1.77414066 C7.61803164,1.77414066 9.38677029,3.54287931 9.38677029,5.71781658 C9.38677029,5.98664382 9.35982183,6.25349923 9.30395309,6.52298375 C9.22902325,6.87791458 8.87935065,7.10204683 8.52573438,7.03237522 C8.35418447,6.99622486 8.20695391,6.89566112 8.11033385,6.74843056 C8.01923986,6.60962067 7.98481761,6.44627251 8.0109229,6.28372423 Z M6.72705249,6.00057111 C6.59739338,6.59006616 6.07103299,7.03237522 5.44309437,7.03237522 C4.71811528,7.03237522 4.12853573,6.44279567 4.12853573,5.71781658 C4.12853573,4.99283749 4.71811528,4.40325794 5.44309437,4.40325794 C6.16807346,4.40325794 6.75765301,4.99283749 6.75765301,5.71781658 C6.75765301,5.80565227 6.74899868,5.89150046 6.73249774,5.97455341 C6.73164919,5.97834955 6.73083225,5.98216067 6.73004728,5.98598655 C6.72903054,5.99084704 6.72803228,5.99570859 6.72705249,6.00057111 Z" id="Shape"></path>
                </g>
            </g>
        </g>
    </g>
</svg>