<?xml version="1.0" encoding="UTF-8"?>
<svg width="10px" height="10px" viewBox="0 0 10 10" version="1.1" xmlns="http://www.w3.org/2000/svg" xmlns:xlink="http://www.w3.org/1999/xlink">
    <!-- Generator: Sketch 41.1 (35376) - http://www.bohemiancoding.com/sketch -->
    <title>tel-icon</title>
    <desc>Created with Sketch.</desc>
    <defs></defs>
    <g id="Welcome" stroke="none" stroke-width="1" fill="none" fill-rule="evenodd">
        <g id="Accueil" transform="translate(-539.000000, -2530.000000)" fill="#4A4A4A">
            <g id="tel-icon" transform="translate(539.890414, 2530.238121)">
                <g id="Group">
                    <path d="M6.34743755,5.58087109 C5.71736741,5.70694115 5.24110275,6.25772723 5.22905605,6.92225651 L5.17022336,6.86048218 L5.16910274,6.86818646 C3.80012198,6.0865521 2.69140585,4.8682951 2.01412948,3.39173456 L2.13963923,3.39173456 C2.71549924,3.39173456 3.20969387,3.0425205 3.42219196,2.54440369 L1.85051856,0.0309869616 C1.60244071,0.0382710094 1.28460408,0.0476562248 1.28460408,0.0470959135 C0.834954205,0.315765216 0.42816815,0.647049314 0.0764326865,1.0283412 C0.0746116745,1.0947381 0.0734910518,1.16183539 0.0734910518,1.23103384 C0.0734910518,5.41740025 3.22706352,8.83179766 7.18244157,9.01403894 C7.18720422,9.01081715 7.19168671,9.00717512 7.19644935,9.00367318 C7.26018477,9.00997668 7.32420035,9.01403894 7.38821592,9.01403894 C7.45741438,9.01403894 7.52465174,9.01263816 7.59090856,9.0110973 C7.97234053,8.65922176 8.30348455,8.25243571 8.57229393,7.80292591 C8.57159354,7.80292591 8.58476085,7.3553772 8.5920449,7.10799973 L6.34743755,5.58087109 Z" id="Shape"></path>
                </g>
            </g>
        </g>
    </g>
</svg>