<?xml version="1.0" encoding="UTF-8"?>
<svg width="9px" height="10px" viewBox="0 0 9 10" version="1.1" xmlns="http://www.w3.org/2000/svg" xmlns:xlink="http://www.w3.org/1999/xlink">
    <!-- Generator: Sketch 41.1 (35376) - http://www.bohemiancoding.com/sketch -->
    <title>tel</title>
    <desc>Created with Sketch.</desc>
    <defs></defs>
    <g id="Welcome" stroke="none" stroke-width="1" fill="none" fill-rule="evenodd">
        <g id="Accueil" transform="translate(-143.000000, -359.000000)" fill="#FFFFFF">
            <g id="tel" transform="translate(142.852306, 358.999612)">
                <g id="Group">
                    <path d="M6.81911724,5.58087109 C6.1890471,5.70694115 5.71278244,6.25772723 5.70073574,6.92225651 L5.64190305,6.86048218 L5.64078242,6.86818646 C4.27180167,6.0865521 3.16308554,4.8682951 2.48580917,3.39173456 L2.61131892,3.39173456 C3.18717893,3.39173456 3.68137356,3.0425205 3.89387165,2.54440369 L2.32219825,0.0309869616 C2.07412039,0.0382710094 1.75628377,0.0476562248 1.75628377,0.0470959135 C1.30663389,0.315765216 0.899847837,0.647049314 0.548112374,1.0283412 C0.546291362,1.0947381 0.545170739,1.16183539 0.545170739,1.23103384 C0.545170739,5.41740025 3.69874321,8.83179766 7.65412126,9.01403894 C7.6588839,9.01081715 7.6633664,9.00717512 7.66812904,9.00367318 C7.73186446,9.00997668 7.79588003,9.01403894 7.85989561,9.01403894 C7.92909406,9.01403894 7.99633143,9.01263816 8.06258825,9.0110973 C8.44402021,8.65922176 8.77516423,8.25243571 9.04397361,7.80292591 C9.04327322,7.80292591 9.05644054,7.3553772 9.06372459,7.10799973 L6.81911724,5.58087109 Z" id="Shape"></path>
                </g>
            </g>
        </g>
    </g>
</svg>