<?xml version="1.0" encoding="UTF-8"?>
<svg width="11px" height="12px" viewBox="0 0 11 12" version="1.1" xmlns="http://www.w3.org/2000/svg" xmlns:xlink="http://www.w3.org/1999/xlink">
    <!-- Generator: Sketch 41.1 (35376) - http://www.bohemiancoding.com/sketch -->
    <title>whatsapp-icon</title>
    <desc>Created with Sketch.</desc>
    <defs></defs>
    <g id="Welcome" stroke="none" stroke-width="1" fill="none" fill-rule="evenodd">
        <g id="Accueil" transform="translate(-540.000000, -2572.000000)" fill="#4A4A4A">
            <g id="whatsapp-icon" transform="translate(538.890414, 2571.891397)">
                <g id="38---Whatsapp-(Solid)">
                    <g id="Group" transform="translate(0.844051, 0.586474)">
                        <g id="Shape">
                            <path d="M5.48569565,0.271400195 C2.68237383,0.271400195 0.401906782,2.55186725 0.401906782,5.35518906 C0.401906782,6.24200863 0.633865419,7.11331835 1.07331158,7.87985031 L0.238363879,10.3845211 C0.218373387,10.4444925 0.233021592,10.510668 0.276276881,10.5568529 C0.309192259,10.5921809 0.355032525,10.6113097 0.401906782,10.6113097 C0.416554987,10.6113097 0.431203192,10.6094141 0.445679065,10.6056228 L3.18024048,9.88613742 C3.89041993,10.2480343 4.68607597,10.4389779 5.48569565,10.4389779 C8.28901746,10.4389779 10.5694845,8.15851087 10.5694845,5.35518906 C10.5694845,2.55186725 8.28901746,0.271400195 5.48569565,0.271400195 L5.48569565,0.271400195 Z M8.6579799,7.66340153 L8.35502055,7.96653322 C7.97244389,8.3492822 7.54557796,8.54332784 7.08665831,8.54332784 C7.08648598,8.54332784 7.08665831,8.54332784 7.08648598,8.54332784 C6.46781472,8.54332784 5.80071822,8.19004759 5.10415298,7.49331002 L3.34757468,5.73673172 C2.79800849,5.18733786 2.46041044,4.6536262 2.34408646,4.15024493 C2.20277436,3.53898395 2.3811378,2.97907784 2.87435149,2.48603649 L3.17731084,2.18290481 C3.37221813,1.98799751 3.68758537,1.94008927 3.93177957,2.06933813 C4.39052689,2.31215368 4.86581807,3.10763739 4.91855161,3.19742227 C5.01367877,3.36406714 5.04280285,3.53639897 5.00178788,3.68425967 C4.97042349,3.79713702 4.89976744,3.88916222 4.79688534,3.95154634 C4.65781355,4.06804265 4.49444298,4.21314605 4.4658359,4.25019739 C4.29074676,4.5085228 4.31073726,4.70687673 4.53631962,4.93263142 L5.90842561,6.30473742 C6.13590362,6.53238776 6.33063859,6.5509996 6.59309996,6.37332549 C6.62773866,6.34626939 6.77284205,6.18307115 6.88933837,6.04382703 C6.97636594,5.89992996 7.11888436,5.82117432 7.29225018,5.82117432 C7.40581685,5.82117432 7.52662146,5.85564068 7.64156679,5.92112677 C7.73324732,5.97506664 8.52890336,6.45053014 8.77154657,6.90910513 C8.90424208,7.15984794 8.85874647,7.46280729 8.6579799,7.66340153 L8.6579799,7.66340153 Z"></path>
                        </g>
                    </g>
                </g>
            </g>
        </g>
    </g>
</svg>